<?xml version="1.0" encoding="UTF-8"?>
<svg width="16px" height="16px" viewBox="0 0 16 16" version="1.1" xmlns="http://www.w3.org/2000/svg" xmlns:xlink="http://www.w3.org/1999/xlink">
    <!-- Generator: Sketch 52.6 (67491) - http://www.bohemiancoding.com/sketch -->
    <title>github</title>
    <desc>Created with Sketch.</desc>
    <g id="Atoms-(Typography-/-Icons-/-Colors-/-Shadows-/-Grids-/-Layout-/-Input-(checkbox/radio-button))-" stroke="none" stroke-width="1" fill="none" fill-rule="evenodd">
        <g id="Atom/icon/Github" transform="translate(-2.000000, -2.000000)" fill="#000000" fill-rule="nonzero">
            <g id="github" transform="translate(2.000000, 2.000000)">
                <path d="M9.56734694,15.8350515 C9.45306122,15.8350515 9.32244898,15.8020619 9.2244898,15.7030928 C9.09387755,15.571134 9.07755102,15.3731959 9.07755102,15.2412371 L9.07755102,12.7340206 C9.07755102,12.3051546 9.0122449,11.9587629 8.86530612,11.6783505 C8.81632653,11.5628866 8.8,11.4804124 8.8,11.414433 L8.8,11.2494845 L8.91428571,11.1340206 C8.96326531,11.0845361 9.04489796,11.0185567 9.19183673,10.9525773 L9.24081633,10.9360825 C9.8122449,10.7876289 10.3020408,10.5731959 10.7265306,10.2927835 C11.477551,9.79793814 11.9346939,9.22061856 12.1632653,8.47835052 C12.4734694,7.47216495 12.244898,6.59793814 11.4938776,5.75670103 C11.2816327,5.50927835 11.2489796,5.29484536 11.3469388,4.99793814 L11.3469388,4.9814433 C11.5102041,4.56907216 11.4938776,4.15670103 11.3142857,3.7443299 C11.0857143,3.85979381 10.8571429,4.00824742 10.644898,4.18969072 C10.5959184,4.23917526 10.5469388,4.28865979 10.4979592,4.33814433 C10.4653061,4.37113402 10.4489796,4.38762887 10.4163265,4.42061856 C10.2530612,4.6185567 10.0081633,4.68453608 9.76326531,4.58556701 C9.1755102,4.37113402 8.50612245,4.27216495 7.82040816,4.28865979 C7.26530612,4.30515464 6.74285714,4.40412371 6.28571429,4.56907216 C5.99183673,4.68453608 5.73061224,4.6185567 5.55102041,4.37113402 C5.32244898,4.10721649 5.02857143,3.89278351 4.63673469,3.72783505 C4.55510204,3.87628866 4.50612245,4.05773196 4.47346939,4.30515464 C4.44081633,4.58556701 4.48979592,4.83298969 4.5877551,5.06391753 L4.60408163,5.11340206 C4.68571429,5.3443299 4.62040816,5.55876289 4.44081633,5.74020619 C3.85306122,6.36701031 3.59183673,7.09278351 3.65714286,7.90103093 C3.70612245,8.52783505 3.96734694,9.12164948 4.45714286,9.63298969 C4.97959184,10.1938144 5.6,10.5731959 6.36734694,10.8041237 C6.74285714,10.9360825 6.85714286,11.0845361 6.85714286,11.4804124 L6.85714286,11.7773196 C6.79183673,12.3216495 6.4,12.585567 5.71428571,12.5690722 C5.71428571,12.5690722 5.71428571,12.5690722 5.71428571,12.5690722 C5.32244898,12.5690722 4.91428571,12.4206186 4.50612245,12.1237113 L4.39183673,12.0412371 C4.5877551,12.2886598 4.76734694,12.4865979 4.93061224,12.6515464 L4.94693878,12.6680412 C5.1755102,12.8989691 5.51836735,13.0309278 5.89387755,13.014433 C6.0244898,12.9979381 6.15510204,13.014433 6.25306122,13.014433 C6.28571429,13.014433 6.33469388,13.014433 6.36734694,13.014433 C6.71020408,13.014433 6.90612245,13.228866 6.90612245,13.5587629 L6.90612245,15.2247423 C6.90612245,15.356701 6.88979592,15.5381443 6.75918367,15.6701031 C6.57959184,15.8515464 6.33469388,15.8020619 6.23673469,15.785567 C5.55102041,15.6206186 4.89795918,15.3731959 4.29387755,15.0268041 C2.97142857,14.3010309 1.92653061,13.2618557 1.1755102,11.9587629 C0.587755102,10.9195876 0.228571429,9.7814433 0.146938776,8.57731959 C0.130612245,8.52783505 0.130612245,8.47835052 0.130612245,8.42886598 L0.130612245,7.52164948 C0.130612245,7.4556701 0.146938776,7.42268041 0.146938776,7.38969072 L0.146938776,7.35670103 C0.146938776,7.30721649 0.163265306,7.2742268 0.163265306,7.24123711 C0.163265306,7.19175258 0.179591837,7.14226804 0.179591837,7.07628866 C0.195918367,6.86185567 0.228571429,6.66391753 0.26122449,6.46597938 C0.587755102,4.76701031 1.3877551,3.31546392 2.64489796,2.12783505 C3.75510204,1.07216495 5.11020408,0.395876289 6.64489796,0.131958763 C7.77142857,-0.0824742268 8.96326531,-0.0164948454 10.155102,0.296907216 C11.4285714,0.643298969 12.5877551,1.31958763 13.5836735,2.30927835 C15.2,3.90927835 16.0326531,6.16907216 15.8693878,8.49484536 C15.755102,10.1608247 15.1510204,11.7278351 14.122449,13.0309278 C13.9918367,13.1958763 13.8612245,13.3443299 13.7142857,13.5092784 C12.6367347,14.6474227 11.3142857,15.4226804 9.77959184,15.8020619 L9.74693878,15.8020619 C9.69795918,15.8185567 9.63265306,15.8350515 9.56734694,15.8350515 Z M9.71428571,11.6453608 C9.82857143,11.9752577 9.87755102,12.3381443 9.87755102,12.7505155 L9.87755102,14.9278351 C11.1346939,14.5649485 12.2122449,13.8886598 13.1102041,12.9484536 C13.2408163,12.8164948 13.355102,12.6680412 13.4693878,12.5195876 C14.4,11.3484536 14.9387755,9.92989691 15.0367347,8.42886598 C15.1836735,6.35051546 14.4326531,4.32164948 12.9959184,2.90309278 C12.0979592,2.01237113 11.0693878,1.40206186 9.91020408,1.08865979 C8.83265306,0.808247423 7.7877551,0.758762887 6.75918367,0.940206186 C5.3877551,1.18762887 4.17959184,1.79793814 3.16734694,2.73814433 C2.04081633,3.79381443 1.32244898,5.09690722 1.02857143,6.61443299 C0.995918367,6.79587629 0.963265306,6.97731959 0.946938776,7.15876289 L0.946938776,7.19175258 C0.946938776,7.22474227 0.930612245,7.2742268 0.930612245,7.30721649 C0.930612245,7.35670103 0.914285714,7.40618557 0.914285714,7.4556701 C0.914285714,7.48865979 0.897959184,7.52164948 0.897959184,7.55463918 L0.897959184,8.41237113 C0.897959184,8.44536082 0.914285714,8.49484536 0.914285714,8.52783505 C0.995918367,9.6 1.30612245,10.6226804 1.84489796,11.5463918 C2.51428571,12.7175258 3.46122449,13.6412371 4.65306122,14.3010309 C5.11020408,14.5484536 5.58367347,14.7463918 6.07346939,14.8948454 L6.07346939,13.8226804 C6.0244898,13.8226804 5.9755102,13.8226804 5.94285714,13.8226804 L5.91020408,13.8226804 C5.28979592,13.8391753 4.73469388,13.6412371 4.34285714,13.2453608 C4.13061224,13.0474227 3.91836735,12.8164948 3.68979592,12.5030928 C3.65714286,12.4701031 3.6244898,12.4371134 3.60816327,12.4041237 C3.5755102,12.371134 3.54285714,12.3216495 3.51020408,12.2886598 L3.44489796,12.2226804 C3.26530612,12.0247423 3.16734694,11.8927835 3.10204082,11.7938144 L2.31836735,10.6556701 L3.68979592,10.8041237 C3.96734694,10.8371134 4.14693878,10.8701031 4.31020408,10.9690722 C4.45714286,11.0680412 4.60408163,11.1670103 4.73469388,11.2824742 L4.96326531,11.4474227 C5.24081633,11.6453608 5.48571429,11.7278351 5.71428571,11.7278351 C5.91020408,11.7278351 5.99183673,11.7113402 6.0244898,11.6948454 C6.0244898,11.6948454 6.0244898,11.6783505 6.0244898,11.6783505 L6.0244898,11.5628866 C5.1755102,11.2824742 4.4244898,10.8371134 3.83673469,10.1938144 C3.21632653,9.53402062 2.87346939,8.77525773 2.8244898,7.95051546 C2.74285714,6.96082474 3.06938776,6.0371134 3.77142857,5.24536082 C3.65714286,4.93195876 3.60816327,4.58556701 3.65714286,4.22268041 C3.70612245,3.79381443 3.80408163,3.46391753 4.01632653,3.15051546 L4.04897959,3.11752577 L4.40816327,2.72164948 L4.83265306,2.91958763 C5.35510204,3.13402062 5.76326531,3.41443299 6.08979592,3.77731959 C6.6122449,3.59587629 7.18367347,3.49690722 7.7877551,3.48041237 C8.53877551,3.46391753 9.24081633,3.5628866 9.89387755,3.77731959 C9.95918367,3.71134021 10.0244898,3.64536082 10.1061224,3.5628866 C10.4489796,3.28247423 10.7918367,3.06804124 11.1836735,2.90309278 L11.7061224,2.68865979 L11.9510204,3.2 C12.3102041,3.84329897 12.3755102,4.55257732 12.1306122,5.22886598 C13.044898,6.26804124 13.322449,7.43917526 12.9469388,8.69278351 C12.6530612,9.63298969 12.0816327,10.3752577 11.1673469,10.9690722 C10.7265306,11.2659794 10.2530612,11.4804124 9.71428571,11.6453608 Z" id="Shape"></path>
            </g>
        </g>
    </g>
</svg>