<?xml version="1.0" encoding="UTF-8"?>
<svg width="16px" height="14px" viewBox="0 0 16 14" version="1.1" xmlns="http://www.w3.org/2000/svg" xmlns:xlink="http://www.w3.org/1999/xlink">
    <!-- Generator: Sketch 52.6 (67491) - http://www.bohemiancoding.com/sketch -->
    <title>Fill 129</title>
    <desc>Created with Sketch.</desc>
    <g id="Atoms-(Typography-/-Icons-/-Colors-/-Shadows-/-Grids-/-Layout-/-Input-(checkbox/radio-button))-" stroke="none" stroke-width="1" fill="none" fill-rule="evenodd">
        <g id="Atom/icon/Desktop" transform="translate(-2.000000, -3.000000)" fill="#000000">
            <path d="M3.39130435,12.3333333 L16.6086957,12.3333333 L16.6086957,4.43589744 L3.39130435,4.43589744 L3.39130435,12.3333333 Z M11.2608696,15.3415385 L11.6817391,15.7435897 L8.25565217,15.7435897 L8.70782609,15.3397436 C8.85043478,15.2194872 8.95652174,14.9969231 8.95652174,14.8066667 L8.95652174,13.7692308 L11.0434783,13.7692308 L11.0434783,14.8066667 C11.0434783,14.9969231 11.1165217,15.2230769 11.2608696,15.3415385 Z M16.6782609,3 L3.32173913,3 C2.59304348,3 2,3.61205128 2,4.36410256 L2,12.3189744 C2,13.0710256 2.59304348,13.7692308 3.32173913,13.7692308 L7.73913043,13.7692308 L7.73913043,14.5069231 L6.41391304,15.5982051 C6.17913043,15.795641 6.07826087,16.1689744 6.17913043,16.4633333 C6.28,16.7576923 6.54086957,17 6.84173913,17 L13.1095652,17 C13.413913,17 13.6852174,16.7558974 13.786087,16.4615385 C13.8869565,16.1653846 13.8052174,15.8135897 13.5686957,15.6179487 L12.2608696,14.5051282 L12.2608696,13.7692308 L16.6782609,13.7692308 C17.4069565,13.7692308 18,13.0710256 18,12.3189744 L18,4.36410256 C18,3.61205128 17.4069565,3 16.6782609,3 Z" id="Fill-129"></path>
        </g>
    </g>
</svg>