<?xml version="1.0" encoding="UTF-8"?>
<svg width="10px" height="18px" viewBox="0 0 10 18" version="1.1" xmlns="http://www.w3.org/2000/svg" xmlns:xlink="http://www.w3.org/1999/xlink">
    <!-- Generator: Sketch 52.6 (67491) - http://www.bohemiancoding.com/sketch -->
    <title>Fill 127</title>
    <desc>Created with Sketch.</desc>
    <g id="Atoms-(Typography-/-Icons-/-Colors-/-Shadows-/-Grids-/-Layout-/-Input-(checkbox/radio-button))-" stroke="none" stroke-width="1" fill="none" fill-rule="evenodd">
        <path d="M1.53846154,16.4347826 L8.46153846,16.4347826 L8.46153846,13.1086957 L1.53846154,13.1086957 L1.53846154,16.4347826 Z M1.53846154,11.9347826 L8.46153846,11.9347826 L8.46153846,1.56521739 L1.53846154,1.56521739 L1.53846154,11.9347826 Z M10,16.5130435 C10,17.3347826 9.34615385,18 8.53846154,18 L1.46153846,18 C0.653846154,18 0,17.3347826 0,16.5130435 L0,1.48695652 C0,0.665217391 0.653846154,0 1.46153846,0 L8.53846154,0 C9.34615385,0 10,0.665217391 10,1.48695652 L10,16.5130435 Z M6.31730769,14.8695652 C6.31730769,15.1943478 6.05961538,15.4565217 5.74038462,15.4565217 L4.25961538,15.4565217 C3.94230769,15.4565217 3.68269231,15.1943478 3.68269231,14.8695652 C3.68269231,14.5447826 3.94230769,14.2826087 4.25961538,14.2826087 L5.74038462,14.2826087 C6.05961538,14.2826087 6.31730769,14.5447826 6.31730769,14.8695652 Z" id="Fill-127" fill="#000000"></path>
    </g>
</svg>