<?xml version="1.0" encoding="UTF-8"?>
<svg width="15px" height="16px" viewBox="0 0 15 16" version="1.1" xmlns="http://www.w3.org/2000/svg" xmlns:xlink="http://www.w3.org/1999/xlink">
    <!-- Generator: Sketch 52.6 (67491) - http://www.bohemiancoding.com/sketch -->
    <title>Fill 41</title>
    <desc>Created with Sketch.</desc>
    <g id="Atoms-(Typography-/-Icons-/-Colors-/-Shadows-/-Grids-/-Layout-/-Input-(checkbox/radio-button))-" stroke="none" stroke-width="1" fill="none" fill-rule="evenodd">
        <g id="Atom/icon/Search" transform="translate(-3.000000, -2.000000)" fill="#000000">
            <path d="M12.5999598,11.9509091 C10.3872689,11.9509091 8.5870811,10.0432727 8.5870811,7.69854545 C8.5870811,5.35381818 10.3872689,3.44636364 12.5999598,3.44636364 C14.8126507,3.44636364 16.6128385,5.35381818 16.6128385,7.69854545 C16.6128385,10.0432727 14.8126507,11.9509091 12.5999598,11.9509091 Z M12.5999598,2 C9.62226323,2 7.19974519,4.55636364 7.19974519,7.69854545 C7.19974519,9.01872727 7.62864374,10.2345455 8.34550954,11.2018182 L3.22471561,16.6152727 C2.92209708,16.9350909 2.92558548,17.4501818 3.23239008,17.7656364 C3.38430982,17.922 3.58227641,18 3.780243,18 C3.98169799,18 4.18332739,17.9190909 4.33594481,17.7576364 L9.46580857,12.3347273 C10.3502919,13.0025455 11.4318697,13.3970909 12.5999598,13.3970909 C15.5776564,13.3970909 18,10.8407273 18,7.69854545 C18,4.55636364 15.5776564,2 12.5999598,2 Z" id="Fill-41"></path>
        </g>
    </g>
</svg>