<?xml version="1.0" encoding="UTF-8"?>
<svg width="16px" height="16px" viewBox="0 0 16 16" version="1.1" xmlns="http://www.w3.org/2000/svg" xmlns:xlink="http://www.w3.org/1999/xlink">
    <!-- Generator: Sketch 52.6 (67491) - http://www.bohemiancoding.com/sketch -->
    <title>Fill 79</title>
    <desc>Created with Sketch.</desc>
    <g id="Atoms-(Typography-/-Icons-/-Colors-/-Shadows-/-Grids-/-Layout-/-Input-(checkbox/radio-button))-" stroke="none" stroke-width="1" fill="none" fill-rule="evenodd">
        <g id="Atom/icon/Home" transform="translate(-2.000000, -2.000000)" fill="#000000">
            <path d="M15.7818648,17.3043478 L15.7818648,10.506087 C15.7818648,10.1217391 15.4703868,9.81043478 15.0862132,9.81043478 C14.7020396,9.81043478 14.3905616,10.1217391 14.3905616,10.506087 L14.3905616,16.6086957 L12.2168242,16.6086957 L12.2168242,12.8886957 C12.2168242,12.3808696 11.8027376,11.9652174 11.2936946,11.9652174 L8.70604455,11.9652174 C8.19717541,11.9652174 7.78291488,12.3808696 7.78291488,12.8886957 L7.78291488,16.6086957 L5.60952539,16.6086957 L5.60952539,10.506087 C5.60952539,10.1217391 5.29804738,9.81043478 4.91387379,9.81043478 C4.5297002,9.81043478 4.21822219,10.1217391 4.21822219,10.506087 L4.21822219,17.3043478 C4.21822219,17.6886957 4.5297002,18 4.91387379,18 L8.47856648,18 C8.86274008,18 9.17421808,17.6886957 9.17421808,17.3043478 L9.17421808,13.3565217 L10.8255211,13.3565217 L10.8255211,17.3043478 C10.8255211,17.6886957 11.1369991,18 11.5211726,18 L15.0862132,18 C15.4703868,18 15.7818648,17.6886957 15.7818648,17.3043478 Z M17.3042983,10.5234783 C17.129168,10.5234783 16.9536899,10.4573913 16.8183856,10.3252174 L10.0001304,3.66782609 L3.18170131,10.3252174 C2.90674502,10.5947826 2.46622365,10.5878261 2.19787604,10.3130435 C1.92952844,10.0382609 1.93474583,9.59826087 2.20970212,9.33043478 L9.51404388,2.19826087 C9.78430453,1.93391304 10.2159563,1.93391304 10.4860431,2.19826087 L17.7903848,9.33043478 C18.0651672,9.59826087 18.0705585,10.0382609 17.802037,10.3130435 C17.6658632,10.453913 17.4851677,10.5234783 17.3042983,10.5234783 Z" id="Fill-79"></path>
        </g>
    </g>
</svg>