<?xml version="1.0" encoding="UTF-8"?>
<svg width="15px" height="18px" viewBox="0 0 15 18" version="1.1" xmlns="http://www.w3.org/2000/svg" xmlns:xlink="http://www.w3.org/1999/xlink">
    <!-- Generator: Sketch 52.6 (67491) - http://www.bohemiancoding.com/sketch -->
    <title>Fill 128</title>
    <desc>Created with Sketch.</desc>
    <g id="Atoms-(Typography-/-Icons-/-Colors-/-Shadows-/-Grids-/-Layout-/-Input-(checkbox/radio-button))-" stroke="none" stroke-width="1" fill="none" fill-rule="evenodd">
        <path d="M1.62162162,16.4347826 L13.3783784,16.4347826 L13.3783784,13.5 L1.62162162,13.5 L1.62162162,16.4347826 Z M1.62162162,12.326087 L13.3783784,12.326087 L13.3783784,1.56521739 L1.62162162,1.56521739 L1.62162162,12.326087 Z M15,16.5130435 C15,17.3347826 14.3108108,18 13.4594595,18 L1.54054054,18 C0.689189189,18 0,17.3347826 0,16.5130435 L0,1.48695652 C0,0.665217391 0.689189189,0 1.54054054,0 L13.4594595,0 C14.3108108,0 15,0.665217391 15,1.48695652 L15,16.5130435 Z M8.63513514,15.0652174 C8.63513514,15.39 8.36351351,15.6521739 8.02702703,15.6521739 L6.975,15.6521739 C6.63851351,15.6521739 6.36689189,15.39 6.36689189,15.0652174 C6.36689189,14.7404348 6.63851351,14.4782609 6.975,14.4782609 L8.02702703,14.4782609 C8.36351351,14.4782609 8.63513514,14.7404348 8.63513514,15.0652174 Z" id="Fill-128" fill="#000000"></path>
    </g>
</svg>